<?xml version="1.0" encoding="iso-8859-1"?>
<!-- Generator: Adobe Illustrator 19.0.0, SVG Export Plug-In . SVG Version: 6.00 Build 0)  -->
<svg version="1.1" id="Layer_1" xmlns="http://www.w3.org/2000/svg" xmlns:xlink="http://www.w3.org/1999/xlink" x="0px" y="0px"
	 viewBox="0 0 507.607 507.607" style="enable-background:new 0 0 507.607 507.607;" xml:space="preserve">
<path style="fill:#BCAAA4;" d="M6,72.404v284.4h494c1.2,0,1.6,1.2,2,2.4v-286.4c0-16.4-13.6-30.4-30.4-30.4H36.8
	C20,42.404,6,56.004,6,72.404z"/>
<path style="fill:#E0E0E0;" d="M500,360.803H8v14c0,17.2,12,30.4,28.4,30.4h434.8c16.4,0,28.4-13.6,28.4-30.4v-14.4
	C500,361.203,500,360.803,500,360.803z M254,392.404c-5.6,0-10-4.4-10-10s4.4-10,10-10s10,4.4,10,10
	C264,387.603,259.6,392.404,254,392.404z"/>
<path style="fill:#FFCDD2;" d="M24,335.603v2h2C25.2,337.603,24,336.803,24,335.603z"/>
<path style="fill:#EEEEEE;" d="M459.6,66.803H28v266h447.6v-266H459.6z M350.8,219.603c0,6.4-2.8,12.4-9.2,12.4h-59.2v56
	c0,6.8-3.2,12.4-9.6,12.4h-37.2c-6.4,0-13.6-6.4-13.6-12.4v-56h-55.2c-6.4,0-13.6-6-13.6-12.4v-37.6c0-6.4,6.8-10.4,13.6-10.4H222
	v-58c0-6.4,6.8-10.4,13.6-10.4h37.2c6.4,0,9.6,4,9.6,10.4v58h59.2c6.4,0,9.2,4,9.2,10.4V219.603L350.8,219.603z"/>
<path style="fill:#FFCDD2;" d="M278,113.203c0-5.2-0.4-5.6-5.6-5.6C276.8,108.004,278,109.203,278,113.203z"/>
<path style="fill:#E57373;" d="M341.6,171.603h-59.2v-58c0-6.4-3.2-10.4-9.6-10.4h-37.2c-6.8,0-13.6,4.4-13.6,10.4v58h-55.2
	c-6.8,0-13.6,4.4-13.6,10.4v37.6c0,6.4,7.2,12.4,13.6,12.4H222v56c0,6.4,7.2,12.4,13.6,12.4h37.2c6.4,0,9.6-6,9.6-12.4v-56h59.2
	c6.4,0,9.2-5.6,9.2-12.4v-37.6C350.8,175.603,347.6,171.603,341.6,171.603z"/>
<path style="fill:#FFCDD2;" d="M145.2,468.803v2h2C146,470.803,145.2,470.004,145.2,468.803z"/>
<path style="fill:#78909C;" d="M326.4,453.603c-1.2,0-2-0.4-2-1.6c-1.2,0-2-0.4-2-1.6v-41.2H181.2v41.2l-32.4,4v11.2h205.6v-12
	H326.4L326.4,453.603z"/>
<circle style="fill:#FFCDD2;" cx="254" cy="382.404" r="6"/>
<path d="M471.2,411.203H36.4c-20,0-36.4-16.8-36.4-37.2v-301.6c0-20,16.4-36.4,36.4-36.4h434.8c20,0,36.4,16.4,36.4,36.4v301.6
	C508,394.404,491.2,411.203,471.2,411.203z M36.8,44.404c-15.6,0-28.4,12.8-28.4,28.4v301.6c0,15.6,13.2,29.2,28.4,29.2h434.8
	c15.6,0,28.4-13.2,28.4-29.2l0,0v-301.6c0-15.6-12.8-28.4-28.4-28.4H36.8z"/>
<path d="M500,362.803H4c-2.4,0-4-1.6-4-4s1.6-4,4-4h496c2.4,0,4,1.6,4,4S502,362.803,500,362.803z"/>
<path d="M477.6,338.803H26c-2.4,0-4-1.6-4-4v-270c0-2.4,1.6-4,4-4h405.2c2.4,0,4,1.6,4,4c0,2.4-1.6,4-4,4H30v262h443.6v-262h-14
	c-2.4,0-4-1.6-4-4c0-2.4,1.6-4,4-4h18c2.4,0,4,1.6,4,4v270C481.6,336.803,480,338.803,477.6,338.803z"/>
<path d="M179.6,453.603c-2.4,0-4-1.6-4-4v-40.4c0-2.4,1.6-4,4-4s4,1.6,4,4v40.4C183.6,452.004,181.6,453.603,179.6,453.603z"/>
<path d="M324.4,453.603c-2.4,0-4-1.6-4-4v-40.4c0-2.4,1.6-4,4-4s4,1.6,4,4v40.4C328.4,452.004,326.8,453.603,324.4,453.603z"/>
<path d="M356.8,471.603H147.2c-2.4,0-4-1.6-4-4v-16c0-2.4,1.6-4,4-4h143.2c2.4,0,4,1.6,4,4s-1.6,4-4,4H151.2v8h201.6v-8h-26.4
	c-2.4,0-4-1.6-4-4s1.6-4,4-4h30.4c2.4,0,4,1.6,4,4v16C360.8,470.004,359.2,471.603,356.8,471.603z"/>
<path d="M254,394.404c-6.8,0-12-5.6-12-12c0-6.8,5.6-12,12-12c6.8,0,12,5.6,12,12C266,388.803,260.4,394.404,254,394.404z
	 M254,378.004c-2.4,0-4,2-4,4c0,2.4,2,4,4,4s4-2,4-4S256,378.004,254,378.004z"/>
<path d="M273.6,303.603H234c-7.6,0-12.8-5.6-12.8-13.6v-57.6h-57.6c-8,0-13.6-5.2-13.6-12.8v-40c0-7.6,5.6-12.8,13.6-12.8h57.6
	v-57.6c0-8,5.2-13.6,12.8-13.6h39.6c7.6,0,13.2,5.6,13.2,13.6v57.6h57.6c3.6,0,7.2,1.2,9.6,3.6c2.4,2.4,4,5.6,4,9.6v40
	c0,7.6-5.6,12.8-13.6,12.8h-57.6v57.6C286.8,298.004,281.6,303.603,273.6,303.603z M163.6,174.803c-2,0-5.6,0.8-5.6,4.8v40
	c0,4,2.8,4.8,5.6,4.8h61.6c2.4,0,4,1.6,4,4v61.6c0,1.6,0.4,5.6,4.8,5.6h39.6c4.4,0,5.2-4,5.2-5.6v-61.6c0-2.4,1.6-4,4-4h61.6
	c2.4,0,5.6-0.8,5.6-4.8v-40c0-1.6-0.4-2.8-1.2-3.6c-0.8-0.8-2.4-1.2-4-1.2h-61.6c-2.4,0-4-1.6-4-4v-61.6c0-1.6-0.4-5.6-5.2-5.6
	h-39.6c-4.4,0-4.8,4-4.8,5.6v61.6c0,2.4-1.6,4-4,4L163.6,174.803L163.6,174.803z"/>
<g>
</g>
<g>
</g>
<g>
</g>
<g>
</g>
<g>
</g>
<g>
</g>
<g>
</g>
<g>
</g>
<g>
</g>
<g>
</g>
<g>
</g>
<g>
</g>
<g>
</g>
<g>
</g>
<g>
</g>
</svg>
