<?xml version="1.0" encoding="iso-8859-1"?>
<!-- Generator: Adobe Illustrator 19.0.0, SVG Export Plug-In . SVG Version: 6.00 Build 0)  -->
<svg version="1.1" id="Layer_1" xmlns="http://www.w3.org/2000/svg" xmlns:xlink="http://www.w3.org/1999/xlink" x="0px" y="0px"
	 viewBox="0 0 508 508" style="enable-background:new 0 0 508 508;" xml:space="preserve">
<rect x="24" y="442.6" style="fill:#616161;" width="463.6" height="20"/>
<path style="fill:#78909C;" d="M433.6,380.2v26.4c0,1.2-0.8,2-2,2h-88.8c-1.2,0-2-0.8-2-2v-26.4h-40.4v26.4c0,1.2-0.8,2-2,2h-88.8
	c-1.2,0-2-0.8-2-2v-26.4h-40.4v26.4c0,1.2-0.8,2-2,2H76.4c-1.2,0-2-0.8-2-2v-26.4H22v64.4h464v-64.4H433.6z"/>
<g>
	<path style="fill:#BCAAA4;" d="M187.6,120.2v-10.4H22v32.4h213.6v-12h-38.8C191.6,130.2,187.6,125.8,187.6,120.2z"/>
	<path style="fill:#BCAAA4;" d="M320.4,109.8v10.4c0,5.6-5.6,9.6-10.8,9.6H276v12h209.6v-32.4H320.4V109.8z"/>
</g>
<path style="fill:#64B5F6;" d="M276,146.2v18.4c0,5.6-4.8,10-10.4,10h-20.4c-5.6,0-9.6-4.4-9.6-10v-18.4H22v230h464v-230H276z"/>
<rect x="213.6" y="216.6" style="fill:#EEEEEE;" width="84.8" height="44.4"/>
<path style="fill:#BF360C;" d="M313.6,89.8H278c-1.2,0-2-0.8-2-2v-36c0-3.2-3.2-6.4-6.4-6.4h-24.4c-3.6,0-5.6,3.2-5.6,6.4v36
	c0,1.2-0.8,2-2,2h-40.8c-3.6,0-5.6,3.2-5.6,6.4v28.4c0,3.2,2,5.6,5.6,5.6h36.8c1.2,0,2,0.8,2,2v36.4c0,3.2,2.4,6,5.6,6h28.4
	c3.6,0,6.4-2.8,6.4-6v-36.4c0-1.2,0.8-2,2-2h35.6c3.2,0,6.8-2.4,6.8-5.6V96.2C320.4,93,317.2,89.8,313.6,89.8z"/>
<rect x="80.8" y="216.6" style="fill:#EEEEEE;" width="84.8" height="44.4"/>
<g>
	<rect x="211.6" y="259" style="fill:#E0E0E0;" width="84.8" height="145.2"/>
	<rect x="78.4" y="259" style="fill:#E0E0E0;" width="84.8" height="145.2"/>
	<rect x="344.8" y="259" style="fill:#E0E0E0;" width="84.8" height="145.2"/>
</g>
<rect x="342.8" y="216.6" style="fill:#EEEEEE;" width="88.8" height="44.4"/>
<path d="M504,468.6H4c-2.4,0-4-1.6-4-4s1.6-4,4-4h500c2.4,0,4,1.6,4,4S506.4,468.6,504,468.6z"/>
<path d="M490,468.6H22c-2.4,0-4-1.6-4-4V109.8c0-2.4,1.6-4,4-4h167.2c2.4,0,4,1.6,4,4s-1.6,4-4,4H26v346.8h460V113.8H322.8
	c-2.4,0-4-1.6-4-4s1.6-4,4-4H490c2.4,0,4,1.6,4,4v354.8C494,467,492,468.6,490,468.6z"/>
<path d="M234,150.2H24.4c-2.4,0-4-1.6-4-4s1.6-4,4-4H234c2.4,0,4,1.6,4,4S236,150.2,234,150.2z"/>
<path d="M488,150.2H278c-2.4,0-4-1.6-4-4s1.6-4,4-4h209.6c2.4,0,4,1.6,4,4S490,150.2,488,150.2z"/>
<path d="M300.4,412.2h-88.8c-2.4,0-4-1.6-4-4V214.6c0-2.4,1.6-4,4-4h88.8c2.4,0,4,1.6,4,4v193.6
	C304.4,410.6,302.4,412.2,300.4,412.2z M215.6,404.2h80.8V218.6h-80.8V404.2z"/>
<path d="M258,267h-44.4c-2.4,0-4-1.6-4-4s1.6-4,4-4H258c2.4,0,4,1.6,4,4S260.4,267,258,267z"/>
<path d="M298.4,267h-8c-2.4,0-4-1.6-4-4s1.6-4,4-4h8c2.4,0,4,1.6,4,4S300.4,267,298.4,267z"/>
<path d="M167.2,412.2H78.4c-2.4,0-4-1.6-4-4V214.6c0-2.4,1.6-4,4-4h88.8c2.4,0,4,1.6,4,4v193.6C171.2,410.6,169.6,412.2,167.2,412.2
	z M82.4,404.2h80.8V218.6H82.4V404.2z"/>
<path d="M124.8,267H80.4c-2.4,0-4-1.6-4-4s1.6-4,4-4h44.4c2.4,0,4,1.6,4,4S127.2,267,124.8,267z"/>
<path d="M165.2,267h-8c-2.4,0-4-1.6-4-4s1.6-4,4-4h8c2.4,0,4,1.6,4,4S167.6,267,165.2,267z"/>
<path d="M433.6,412.2h-88.8c-2.4,0-4-1.6-4-4V214.6c0-2.4,1.6-4,4-4h88.8c2.4,0,4,1.6,4,4v193.6
	C437.6,410.6,435.6,412.2,433.6,412.2z M348.8,404.2h80.8V218.6h-80.8V404.2z"/>
<path d="M391.2,267h-44.4c-2.4,0-4-1.6-4-4s1.6-4,4-4h44.4c2.4,0,4,1.6,4,4S393.2,267,391.2,267z"/>
<path d="M431.6,267h-8c-2.4,0-4-1.6-4-4s1.6-4,4-4h8c2.4,0,4,1.6,4,4S433.6,267,431.6,267z"/>
<path d="M76.4,384.2H24c-2.4,0-4-1.6-4-4s1.6-4,4-4h52.4c2.4,0,4,1.6,4,4S78.8,384.2,76.4,384.2z"/>
<path d="M205.6,384.2h-36.4c-2.4,0-4-1.6-4-4s1.6-4,4-4h36.4c2.4,0,4,1.6,4,4S208,384.2,205.6,384.2z"/>
<path d="M342.8,384.2h-40.4c-2.4,0-4-1.6-4-4s1.6-4,4-4h40.4c2.4,0,4,1.6,4,4S344.8,384.2,342.8,384.2z"/>
<path d="M431.6,448.6H24.4c-2.4,0-4-1.6-4-4s1.6-4,4-4h407.2c2.4,0,4,1.6,4,4S433.6,448.6,431.6,448.6z"/>
<path d="M488,448.6h-24c-2.4,0-4-1.6-4-4s1.6-4,4-4h24c2.4,0,4,1.6,4,4S490,448.6,488,448.6z"/>
<path d="M488,384.2h-52.4c-2.4,0-4-1.6-4-4s1.6-4,4-4H488c2.4,0,4,1.6,4,4S490,384.2,488,384.2z"/>
<path d="M269.2,179.8h-26c-5.6,0-10-4.4-10-10.4v-36.8h-36.8c-6,0-10.4-4-10.4-9.6V96.6c0-5.6,4.4-10,10.4-10h36.8V49.8
	c0-6,4-10.4,10-10.4h26c6,0,10,4.4,10,10.4v36.8H316c6,0,10.4,4,10.4,10V123c0,5.6-4.4,9.6-10.4,9.6h-36.8v36.8
	C279.2,175.4,274.8,179.8,269.2,179.8z M196.4,95c-2.4,0-2.4,1.2-2.4,2v26.4c0,0.8,0,1.6,2.4,1.6h40.8c2.4,0,4,1.6,4,4v40.8
	c0,2.4,1.2,2.4,2,2.4h26c0.4,0,2,0,2-2.4V129c0-2.4,1.6-4,4-4H316c2.4,0,2.4-1.2,2.4-1.6V97c0-0.4,0-2-2.4-2h-40.8c-2.4,0-4-1.6-4-4
	V50.2c0-2.4-1.6-2.4-2-2.4h-26c-0.4,0-2,0-2,2.4V91c0,2.4-1.6,4-4,4H196.4z"/>
<g>
</g>
<g>
</g>
<g>
</g>
<g>
</g>
<g>
</g>
<g>
</g>
<g>
</g>
<g>
</g>
<g>
</g>
<g>
</g>
<g>
</g>
<g>
</g>
<g>
</g>
<g>
</g>
<g>
</g>
</svg>
